<svg xmlns="http://www.w3.org/2000/svg" xmlns:xlink="http://www.w3.org/1999/xlink" width="500" zoomAndPan="magnify" viewBox="0 0 375 374.999991" height="500" preserveAspectRatio="xMidYMid meet" version="1.0"><defs><g/><clipPath id="3da3c3a7b6"><path d="M 84 149 L 187 149 L 187 191 L 84 191 Z M 84 149 " clip-rule="nonzero"/></clipPath><clipPath id="cdbc218ed3"><path d="M 85.675781 148.917969 L 187.777344 160.464844 L 183.730469 196.238281 L 81.632812 184.691406 Z M 85.675781 148.917969 " clip-rule="nonzero"/></clipPath><clipPath id="5d9b10da11"><path d="M 85.675781 148.917969 L 187.777344 160.464844 L 183.730469 196.238281 L 81.632812 184.691406 Z M 85.675781 148.917969 " clip-rule="nonzero"/></clipPath><clipPath id="11819b0084"><path d="M 85.675781 148.917969 L 187.777344 160.464844 L 183.730469 196.238281 L 81.632812 184.691406 Z M 85.675781 148.917969 " clip-rule="nonzero"/></clipPath><clipPath id="882f5c4108"><path d="M 0.359375 6 L 42 6 L 42 52 L 0.359375 52 Z M 0.359375 6 " clip-rule="nonzero"/></clipPath><clipPath id="6b4bee4ec0"><rect x="0" width="243" y="0" height="75"/></clipPath><clipPath id="18f1af4760"><rect x="0" width="135" y="0" height="14"/></clipPath></defs><g clip-path="url(#3da3c3a7b6)"><g clip-path="url(#cdbc218ed3)"><g clip-path="url(#5d9b10da11)"><g clip-path="url(#11819b0084)"><path fill="#000000" d="M 184.179688 171.679688 C 184.160156 171.464844 184.140625 171.257812 184.105469 171.050781 L 184 170.445312 C 183.949219 170.046875 183.816406 169.664062 183.738281 169.289062 C 183.507812 168.546875 183.253906 167.847656 182.925781 167.191406 C 182.578125 166.542969 182.21875 165.914062 181.769531 165.347656 C 180.882812 164.207031 179.800781 163.222656 178.476562 162.4375 L 178.230469 162.28125 L 177.972656 162.148438 C 177.796875 162.0625 177.621094 161.964844 177.441406 161.875 C 177.074219 161.726562 176.699219 161.527344 176.300781 161.390625 C 175.902344 161.242188 175.488281 161.113281 175.054688 160.988281 C 174.621094 160.867188 174.167969 160.761719 173.679688 160.648438 C 174.46875 160.039062 175.425781 159.675781 176.425781 159.496094 C 176.929688 159.402344 177.4375 159.398438 177.957031 159.386719 C 178.21875 159.386719 178.472656 159.425781 178.734375 159.449219 L 179.125 159.492188 C 179.253906 159.511719 179.382812 159.546875 179.511719 159.574219 C 181.578125 160.003906 183.496094 161.261719 184.8125 162.984375 C 185.480469 163.839844 185.964844 164.824219 186.3125 165.84375 C 186.640625 166.875 186.773438 167.957031 186.742188 169.015625 C 186.722656 169.277344 186.6875 169.542969 186.65625 169.800781 C 186.636719 169.933594 186.628906 170.058594 186.601562 170.1875 C 186.574219 170.316406 186.539062 170.445312 186.507812 170.570312 C 186.441406 170.824219 186.390625 171.074219 186.304688 171.320312 C 186.222656 171.5625 186.128906 171.800781 186.023438 172.035156 C 185.59375 172.964844 185.007812 173.800781 184.222656 174.417969 C 184.261719 173.421875 184.265625 172.53125 184.179688 171.679688 Z M 86.6875 160.65625 C 86.757812 160.453125 86.820312 160.253906 86.898438 160.058594 L 87.140625 159.492188 C 87.277344 159.117188 87.492188 158.769531 87.652344 158.421875 C 88.042969 157.75 88.449219 157.128906 88.914062 156.558594 C 89.398438 156.003906 89.890625 155.476562 90.453125 155.019531 C 91.570312 154.105469 92.84375 153.386719 94.3125 152.921875 L 94.585938 152.824219 L 94.871094 152.753906 C 95.058594 152.707031 95.25 152.648438 95.449219 152.601562 C 95.839844 152.542969 96.246094 152.433594 96.667969 152.386719 C 97.085938 152.328125 97.519531 152.296875 97.972656 152.269531 C 98.421875 152.25 98.886719 152.25 99.386719 152.246094 C 98.75 151.476562 97.898438 150.910156 96.964844 150.511719 C 96.496094 150.308594 96.003906 150.1875 95.496094 150.0625 C 95.246094 150.003906 94.988281 149.984375 94.726562 149.949219 L 94.335938 149.90625 C 94.203125 149.894531 94.074219 149.902344 93.941406 149.898438 C 91.832031 149.855469 89.679688 150.65625 88.015625 152.035156 C 87.171875 152.722656 86.476562 153.574219 85.914062 154.492188 C 85.363281 155.421875 84.992188 156.449219 84.789062 157.484375 C 84.746094 157.746094 84.722656 158.011719 84.695312 158.273438 C 84.683594 158.402344 84.664062 158.53125 84.660156 158.660156 C 84.65625 158.792969 84.664062 158.925781 84.664062 159.054688 C 84.675781 159.316406 84.667969 159.574219 84.695312 159.828125 C 84.726562 160.085938 84.761719 160.339844 84.8125 160.589844 C 85.019531 161.589844 85.40625 162.539062 86.035156 163.3125 C 86.21875 162.335938 86.414062 161.464844 86.6875 160.65625 Z M 179.664062 164.25 C 179.308594 164.648438 178.949219 165.042969 178.578125 165.429688 L 178.027344 166.019531 L 177.75 166.3125 L 177.460938 166.59375 L 176.289062 167.695312 L 175.695312 168.246094 L 175.074219 168.765625 C 174.25 169.457031 173.417969 170.152344 172.539062 170.777344 L 171.226562 171.734375 C 170.777344 172.035156 170.320312 172.328125 169.867188 172.628906 C 168.691406 173.390625 163.546875 177.925781 163.226562 178.234375 C 162.917969 178.550781 162.597656 178.859375 162.28125 179.171875 C 161.964844 179.484375 161.648438 179.796875 161.3125 180.085938 C 158.671875 182.480469 155.695312 184.542969 152.480469 186.199219 C 152.074219 186.402344 151.675781 186.613281 151.265625 186.808594 L 150.023438 187.359375 C 149.195312 187.742188 148.335938 188.035156 147.480469 188.347656 C 145.769531 188.972656 143.992188 189.417969 142.195312 189.800781 C 141.75 189.914062 141.292969 189.957031 140.839844 190.03125 L 139.476562 190.234375 C 138.566406 190.324219 137.652344 190.40625 136.738281 190.46875 C 136.730469 190.46875 136.71875 190.46875 136.710938 190.46875 L 135.34375 190.488281 C 134.878906 190.484375 134.417969 190.515625 133.957031 190.476562 L 132.574219 190.402344 L 131.882812 190.363281 C 131.652344 190.347656 131.421875 190.3125 131.195312 190.285156 L 129.820312 190.101562 C 129.589844 190.070312 129.359375 190.046875 129.132812 190.003906 L 128.453125 189.867188 C 127.546875 189.679688 126.636719 189.527344 125.753906 189.25 L 124.421875 188.867188 C 123.976562 188.742188 123.550781 188.566406 123.113281 188.414062 L 121.8125 187.945312 C 121.382812 187.777344 120.972656 187.570312 120.550781 187.386719 L 119.296875 186.8125 C 118.886719 186.605469 118.484375 186.382812 118.082031 186.164062 C 117.675781 185.949219 117.273438 185.730469 116.875 185.507812 C 116.484375 185.265625 116.105469 185.015625 115.71875 184.765625 L 114.570312 184.023438 C 114.195312 183.761719 113.832031 183.488281 113.472656 183.210938 L 112.386719 182.386719 C 112.027344 182.109375 111.699219 181.796875 111.351562 181.503906 C 110.667969 180.910156 109.980469 180.324219 109.363281 179.667969 L 108.414062 178.710938 L 107.945312 178.226562 C 107.792969 178.0625 107.648438 177.886719 107.503906 177.71875 C 106.925781 177.035156 106.328125 176.367188 105.773438 175.667969 L 104.191406 173.519531 L 104.003906 173.257812 C 104 173.253906 103.996094 173.246094 103.992188 173.242188 L 103.820312 172.96875 L 103.460938 172.40625 C 103.222656 172.03125 98.46875 165.289062 97.515625 164.304688 L 96.953125 163.722656 L 96.671875 163.429688 L 96.402344 163.128906 L 95.339844 161.902344 L 94.292969 160.675781 C 93.949219 160.261719 93.632812 159.820312 93.308594 159.394531 L 92.34375 158.105469 L 91.867188 157.460938 L 91.421875 156.789062 C 91.414062 156.773438 91.40625 156.761719 91.398438 156.75 C 91.136719 156.339844 91.664062 155.894531 92.019531 156.222656 C 92.03125 156.230469 92.035156 156.234375 92.042969 156.242188 L 92.621094 156.785156 L 93.222656 157.304688 L 94.414062 158.339844 C 94.8125 158.683594 95.199219 159.039062 95.601562 159.375 L 96.828125 160.355469 L 98.042969 161.339844 L 98.335938 161.578125 C 98.339844 161.582031 98.347656 161.585938 98.351562 161.59375 L 98.660156 161.816406 L 99.292969 162.273438 C 102.617188 164.761719 106.078125 167.003906 109.714844 168.859375 C 116.964844 172.609375 124.792969 174.980469 132.808594 175.851562 C 140.820312 176.722656 149.007812 176.171875 156.933594 174.199219 C 164.871094 172.238281 172.515625 168.90625 179.664062 164.25 " fill-opacity="1" fill-rule="nonzero"/></g></g></g></g><g transform="matrix(1, 0, 0, 1, 69, 166)"><g clip-path="url(#6b4bee4ec0)"><g clip-path="url(#882f5c4108)"><g fill="#000000" fill-opacity="1"><g transform="translate(0.596267, 48.284282)"><g><path d="M 6.78125 2.796875 C 4.78125 2.796875 3.148438 2.296875 1.890625 1.296875 C 0.628906 0.304688 0 -0.992188 0 -2.609375 C 0 -3.640625 0.28125 -4.5625 0.84375 -5.375 C 1.40625 -6.1875 2.160156 -6.820312 3.109375 -7.28125 C 4.054688 -7.75 5.125 -7.984375 6.3125 -7.984375 C 7.207031 -7.984375 8.09375 -7.910156 8.96875 -7.765625 C 9.84375 -7.628906 10.71875 -7.453125 11.59375 -7.234375 C 12.332031 -8.609375 13 -10.179688 13.59375 -11.953125 C 14.1875 -13.734375 14.765625 -15.585938 15.328125 -17.515625 C 15.890625 -19.453125 16.492188 -21.367188 17.140625 -23.265625 C 17.796875 -25.160156 18.519531 -26.925781 19.3125 -28.5625 C 20.113281 -30.195312 21.054688 -31.609375 22.140625 -32.796875 C 23.234375 -33.984375 24.492188 -34.804688 25.921875 -35.265625 C 26.359375 -35.421875 26.796875 -35.4375 27.234375 -35.3125 C 27.671875 -35.1875 27.972656 -34.992188 28.140625 -34.734375 C 28.316406 -34.472656 28.1875 -34.171875 27.75 -33.828125 C 26.625 -32.953125 25.703125 -31.726562 24.984375 -30.15625 C 24.273438 -28.582031 23.660156 -26.789062 23.140625 -24.78125 C 22.628906 -22.769531 22.15625 -20.664062 21.71875 -18.46875 C 21.28125 -16.28125 20.804688 -14.09375 20.296875 -11.90625 C 19.785156 -9.726562 19.125 -7.707031 18.3125 -5.84375 C 19.125 -5.75 19.96875 -5.703125 20.84375 -5.703125 C 22.613281 -5.703125 24.304688 -6.039062 25.921875 -6.71875 C 27.546875 -7.40625 28.992188 -8.460938 30.265625 -9.890625 C 31.546875 -11.328125 32.550781 -13.148438 33.28125 -15.359375 C 34.019531 -17.578125 34.390625 -20.226562 34.390625 -23.3125 C 34.390625 -25.269531 34.109375 -27.195312 33.546875 -29.09375 C 32.984375 -31 32.148438 -32.722656 31.046875 -34.265625 C 29.941406 -35.804688 28.585938 -37.035156 26.984375 -37.953125 C 25.378906 -38.878906 23.515625 -39.34375 21.390625 -39.34375 C 19.117188 -39.34375 17.148438 -39.078125 15.484375 -38.546875 C 13.816406 -38.015625 12.414062 -37.328125 11.28125 -36.484375 C 10.144531 -35.640625 9.238281 -34.734375 8.5625 -33.765625 C 7.894531 -32.804688 7.414062 -31.882812 7.125 -31 C 6.832031 -30.113281 6.6875 -29.359375 6.6875 -28.734375 C 6.6875 -27.140625 7.039062 -25.96875 7.75 -25.21875 C 8.46875 -24.476562 9.46875 -24.109375 10.75 -24.109375 C 11.28125 -24.109375 11.546875 -23.878906 11.546875 -23.421875 C 11.546875 -22.972656 11.34375 -22.445312 10.9375 -21.84375 C 10.53125 -21.238281 9.9375 -20.707031 9.15625 -20.25 C 8.375 -19.800781 7.441406 -19.578125 6.359375 -19.578125 C 5.109375 -19.578125 4.054688 -19.894531 3.203125 -20.53125 C 2.347656 -21.164062 1.691406 -21.957031 1.234375 -22.90625 C 0.785156 -23.863281 0.5625 -24.796875 0.5625 -25.703125 C 0.5625 -27.910156 1.128906 -30.003906 2.265625 -31.984375 C 3.398438 -33.960938 4.929688 -35.707031 6.859375 -37.21875 C 8.796875 -38.726562 10.96875 -39.910156 13.375 -40.765625 C 15.789062 -41.617188 18.28125 -42.046875 20.84375 -42.046875 C 24.019531 -42.046875 26.851562 -41.429688 29.34375 -40.203125 C 31.832031 -38.972656 33.945312 -37.320312 35.6875 -35.25 C 37.4375 -33.175781 38.757812 -30.851562 39.65625 -28.28125 C 40.5625 -25.71875 41.015625 -23.082031 41.015625 -20.375 C 41.015625 -17.632812 40.648438 -15.039062 39.921875 -12.59375 C 39.191406 -10.144531 38.09375 -7.96875 36.625 -6.0625 C 35.164062 -4.164062 33.3125 -2.671875 31.0625 -1.578125 C 28.820312 -0.492188 26.207031 0.046875 23.21875 0.046875 C 21.8125 0.046875 20.5 -0.109375 19.28125 -0.421875 C 18.070312 -0.734375 16.925781 -1.109375 15.84375 -1.546875 C 14.8125 -0.203125 13.554688 0.851562 12.078125 1.625 C 10.597656 2.40625 8.832031 2.796875 6.78125 2.796875 Z M 4.015625 -4.0625 C 4.015625 -3.65625 4.203125 -3.347656 4.578125 -3.140625 C 4.953125 -2.941406 5.390625 -2.84375 5.890625 -2.84375 C 6.609375 -2.84375 7.273438 -2.988281 7.890625 -3.28125 C 8.515625 -3.582031 9.078125 -3.984375 9.578125 -4.484375 C 8.984375 -4.734375 8.398438 -4.925781 7.828125 -5.0625 C 7.253906 -5.207031 6.671875 -5.28125 6.078125 -5.28125 C 5.578125 -5.28125 5.109375 -5.160156 4.671875 -4.921875 C 4.234375 -4.691406 4.015625 -4.40625 4.015625 -4.0625 Z M 4.015625 -4.0625 "/></g></g></g></g><g fill="#000000" fill-opacity="1"><g transform="translate(43.940972, 48.284282)"><g><path d="M 8.171875 0 C 6.867188 0 5.582031 -0.363281 4.3125 -1.09375 C 3.050781 -1.832031 2.015625 -2.929688 1.203125 -4.390625 C 0.398438 -5.859375 0 -7.679688 0 -9.859375 C 0 -11.253906 0.238281 -12.660156 0.71875 -14.078125 C 1.207031 -15.503906 1.894531 -16.804688 2.78125 -17.984375 C 3.664062 -19.171875 4.710938 -20.128906 5.921875 -20.859375 C 7.140625 -21.585938 8.484375 -21.953125 9.953125 -21.953125 C 11.691406 -21.953125 13.03125 -21.5 13.96875 -20.59375 C 14.90625 -19.695312 15.375 -18.609375 15.375 -17.328125 C 15.375 -16.054688 14.96875 -14.941406 14.15625 -13.984375 C 13.34375 -13.035156 12.257812 -12.296875 10.90625 -11.765625 C 9.550781 -11.242188 8.066406 -10.953125 6.453125 -10.890625 L 6.453125 -10.65625 C 6.453125 -9.125 6.679688 -7.890625 7.140625 -6.953125 C 7.609375 -6.023438 8.53125 -5.5625 9.90625 -5.5625 C 10.8125 -5.5625 11.757812 -5.867188 12.75 -6.484375 C 13.75 -7.109375 14.722656 -7.9375 15.671875 -8.96875 C 16.617188 -10 17.472656 -11.132812 18.234375 -12.375 C 19.003906 -13.625 19.609375 -14.859375 20.046875 -16.078125 C 20.390625 -16.972656 20.785156 -17.4375 21.234375 -17.46875 C 21.679688 -17.5 22.035156 -17.273438 22.296875 -16.796875 C 22.566406 -16.316406 22.578125 -15.703125 22.328125 -14.953125 C 21.765625 -13.171875 21.039062 -11.398438 20.15625 -9.640625 C 19.269531 -7.890625 18.21875 -6.285156 17 -4.828125 C 15.789062 -3.378906 14.453125 -2.210938 12.984375 -1.328125 C 11.523438 -0.441406 9.921875 0 8.171875 0 Z M 6.828125 -13.828125 C 7.722656 -13.890625 8.578125 -14.050781 9.390625 -14.3125 C 10.203125 -14.582031 10.867188 -14.96875 11.390625 -15.46875 C 11.921875 -15.96875 12.1875 -16.585938 12.1875 -17.328125 C 12.1875 -17.703125 12.09375 -18.066406 11.90625 -18.421875 C 11.726562 -18.785156 11.328125 -18.96875 10.703125 -18.96875 C 10.015625 -18.96875 9.421875 -18.71875 8.921875 -18.21875 C 8.421875 -17.71875 8 -17.070312 7.65625 -16.28125 C 7.3125 -15.488281 7.035156 -14.671875 6.828125 -13.828125 Z M 6.828125 -13.828125 "/></g></g></g><g fill="#000000" fill-opacity="1"><g transform="translate(62.203673, 48.284282)"><g><path d="M 17.140625 0 C 16.085938 0 15.207031 -0.328125 14.5 -0.984375 C 13.800781 -1.640625 13.28125 -2.457031 12.9375 -3.4375 C 12.59375 -4.414062 12.421875 -5.421875 12.421875 -6.453125 C 12.421875 -7.535156 12.53125 -8.671875 12.75 -9.859375 C 12.96875 -11.046875 13.1875 -12.148438 13.40625 -13.171875 C 13.625 -14.203125 13.75 -15.035156 13.78125 -15.671875 C 13.8125 -16.304688 13.65625 -16.625 13.3125 -16.625 C 12.84375 -16.625 12.320312 -16.257812 11.75 -15.53125 C 11.175781 -14.800781 10.609375 -13.835938 10.046875 -12.640625 C 9.484375 -11.441406 8.96875 -10.148438 8.5 -8.765625 C 8.03125 -7.378906 7.648438 -6.019531 7.359375 -4.6875 C 7.066406 -3.363281 6.921875 -2.222656 6.921875 -1.265625 C 6.921875 -0.921875 6.785156 -0.65625 6.515625 -0.46875 C 6.253906 -0.28125 5.921875 -0.1875 5.515625 -0.1875 C 4.890625 -0.1875 4.195312 -0.421875 3.4375 -0.890625 C 2.675781 -1.359375 2.019531 -2.144531 1.46875 -3.25 C 0.925781 -4.351562 0.65625 -5.820312 0.65625 -7.65625 C 0.65625 -9.53125 0.734375 -11.226562 0.890625 -12.75 C 1.046875 -14.28125 1.484375 -15.898438 2.203125 -17.609375 C 2.628906 -18.609375 3.21875 -19.359375 3.96875 -19.859375 C 4.71875 -20.359375 5.460938 -20.65625 6.203125 -20.75 C 6.953125 -20.84375 7.566406 -20.78125 8.046875 -20.5625 C 8.535156 -20.34375 8.75 -20.015625 8.6875 -19.578125 C 8.5 -18.421875 8.175781 -17.273438 7.71875 -16.140625 C 7.269531 -15.003906 6.972656 -13.71875 6.828125 -12.28125 C 8.378906 -15.332031 9.976562 -17.664062 11.625 -19.28125 C 13.28125 -20.90625 15.007812 -21.71875 16.8125 -21.71875 C 17.8125 -21.71875 18.628906 -21.335938 19.265625 -20.578125 C 19.910156 -19.816406 20.234375 -18.890625 20.234375 -17.796875 C 20.234375 -16.617188 20.09375 -15.390625 19.8125 -14.109375 C 19.53125 -12.828125 19.25 -11.585938 18.96875 -10.390625 C 18.6875 -9.191406 18.546875 -8.09375 18.546875 -7.09375 C 18.546875 -6.070312 18.875 -5.5625 19.53125 -5.5625 C 20.125 -5.5625 20.753906 -5.957031 21.421875 -6.75 C 22.085938 -7.539062 22.734375 -8.519531 23.359375 -9.6875 C 23.984375 -10.863281 24.550781 -12.035156 25.0625 -13.203125 C 25.570312 -14.367188 25.953125 -15.328125 26.203125 -16.078125 C 26.484375 -16.847656 26.847656 -17.300781 27.296875 -17.4375 C 27.753906 -17.582031 28.140625 -17.453125 28.453125 -17.046875 C 28.765625 -16.640625 28.796875 -16.003906 28.546875 -15.140625 C 28.359375 -14.453125 28.03125 -13.492188 27.5625 -12.265625 C 27.09375 -11.035156 26.515625 -9.71875 25.828125 -8.3125 C 25.148438 -6.914062 24.359375 -5.582031 23.453125 -4.3125 C 22.546875 -3.050781 21.5625 -2.015625 20.5 -1.203125 C 19.445312 -0.398438 18.328125 0 17.140625 0 Z M 17.140625 0 "/></g></g></g><g fill="#000000" fill-opacity="1"><g transform="translate(86.67848, 48.284282)"><g><path d="M 7.984375 0 C 5.992188 0 4.351562 -0.925781 3.0625 -2.78125 C 1.769531 -4.632812 1.125 -7.226562 1.125 -10.5625 C 1.125 -12.144531 1.300781 -14.128906 1.65625 -16.515625 C 2.019531 -18.898438 2.601562 -21.367188 3.40625 -23.921875 L 0.703125 -23.921875 C -0.171875 -23.921875 -0.832031 -24.09375 -1.28125 -24.4375 C -1.738281 -24.78125 -1.96875 -25.125 -1.96875 -25.46875 C -1.96875 -25.707031 -1.878906 -25.9375 -1.703125 -26.15625 C -1.535156 -26.375 -1.203125 -26.484375 -0.703125 -26.484375 L 4.34375 -26.484375 C 4.53125 -26.984375 4.734375 -27.472656 4.953125 -27.953125 C 5.171875 -28.441406 5.390625 -28.921875 5.609375 -29.390625 C 6.015625 -30.222656 6.601562 -30.878906 7.375 -31.359375 C 8.15625 -31.847656 8.921875 -32.160156 9.671875 -32.296875 C 10.421875 -32.441406 11.003906 -32.378906 11.421875 -32.109375 C 11.835938 -31.847656 11.910156 -31.390625 11.640625 -30.734375 C 11.328125 -29.992188 11.03125 -29.265625 10.75 -28.546875 C 10.46875 -27.828125 10.203125 -27.140625 9.953125 -26.484375 L 15 -26.484375 C 15.65625 -26.484375 16.046875 -26.28125 16.171875 -25.875 C 16.296875 -25.476562 16.175781 -25.078125 15.8125 -24.671875 C 15.457031 -24.265625 14.84375 -24.0625 13.96875 -24.0625 C 13.28125 -24.0625 12.523438 -24.0625 11.703125 -24.0625 C 10.878906 -24.0625 10.015625 -24.046875 9.109375 -24.015625 C 8.265625 -21.273438 7.738281 -18.859375 7.53125 -16.765625 C 7.332031 -14.679688 7.234375 -12.722656 7.234375 -10.890625 C 7.234375 -8.765625 7.441406 -7.34375 7.859375 -6.625 C 8.285156 -5.914062 8.71875 -5.5625 9.15625 -5.5625 C 10.0625 -5.5625 11.003906 -6.382812 11.984375 -8.03125 C 12.960938 -9.6875 14.171875 -12.382812 15.609375 -16.125 C 15.921875 -16.925781 16.304688 -17.375 16.765625 -17.46875 C 17.234375 -17.5625 17.609375 -17.375 17.890625 -16.90625 C 18.171875 -16.445312 18.171875 -15.796875 17.890625 -14.953125 C 17.234375 -12.984375 16.585938 -11.101562 15.953125 -9.3125 C 15.316406 -7.53125 14.613281 -5.9375 13.84375 -4.53125 C 13.082031 -3.125 12.234375 -2.015625 11.296875 -1.203125 C 10.367188 -0.398438 9.265625 0 7.984375 0 Z M 7.984375 0 "/></g></g></g><g fill="#000000" fill-opacity="1"><g transform="translate(100.550646, 48.284282)"><g/></g></g><g fill="#000000" fill-opacity="1"><g transform="translate(114.562939, 48.284282)"><g><path d="M 19.859375 0 C 19.046875 0 18.203125 -0.175781 17.328125 -0.53125 C 16.460938 -0.894531 15.644531 -1.488281 14.875 -2.3125 C 14.113281 -3.132812 13.5 -4.226562 13.03125 -5.59375 C 12.5625 -6.96875 12.328125 -8.65625 12.328125 -10.65625 C 12.328125 -13.269531 12.582031 -15.820312 13.09375 -18.3125 C 13.613281 -20.800781 14.21875 -23.191406 14.90625 -25.484375 C 15.59375 -27.773438 16.191406 -29.914062 16.703125 -31.90625 C 17.210938 -33.90625 17.46875 -35.726562 17.46875 -37.375 C 17.46875 -38.75 16.832031 -39.4375 15.5625 -39.4375 C 14.375 -39.4375 13.070312 -39.144531 11.65625 -38.5625 C 10.238281 -37.988281 8.882812 -37.164062 7.59375 -36.09375 C 6.300781 -35.019531 5.238281 -33.75 4.40625 -32.28125 C 3.582031 -30.820312 3.171875 -29.203125 3.171875 -27.421875 C 3.171875 -26.828125 2.984375 -26.53125 2.609375 -26.53125 C 2.335938 -26.53125 1.988281 -26.75 1.5625 -27.1875 C 1.144531 -27.625 0.78125 -28.238281 0.46875 -29.03125 C 0.15625 -29.832031 0 -30.742188 0 -31.765625 C 0 -33.046875 0.378906 -34.222656 1.140625 -35.296875 C 1.910156 -36.367188 2.910156 -37.328125 4.140625 -38.171875 C 5.367188 -39.015625 6.691406 -39.722656 8.109375 -40.296875 C 9.523438 -40.867188 10.882812 -41.300781 12.1875 -41.59375 C 13.5 -41.894531 14.59375 -42.046875 15.46875 -42.046875 C 17.144531 -42.046875 18.472656 -41.738281 19.453125 -41.125 C 20.441406 -40.519531 21.144531 -39.695312 21.5625 -38.65625 C 21.976562 -37.613281 22.1875 -36.421875 22.1875 -35.078125 C 22.21875 -33.460938 22.023438 -31.664062 21.609375 -29.6875 C 21.191406 -27.707031 20.703125 -25.613281 20.140625 -23.40625 C 19.578125 -21.195312 19.082031 -18.953125 18.65625 -16.671875 C 18.238281 -14.398438 18.03125 -12.175781 18.03125 -10 C 18.03125 -8.5 18.25 -7.382812 18.6875 -6.65625 C 19.125 -5.925781 19.640625 -5.5625 20.234375 -5.5625 C 21.128906 -5.5625 21.941406 -6.039062 22.671875 -7 C 23.410156 -7.96875 24.09375 -9.269531 24.71875 -10.90625 C 25.34375 -12.539062 25.925781 -14.367188 26.46875 -16.390625 C 27.007812 -18.421875 27.546875 -20.515625 28.078125 -22.671875 C 28.609375 -24.835938 29.144531 -26.929688 29.6875 -28.953125 C 30.226562 -30.984375 30.796875 -32.796875 31.390625 -34.390625 C 31.640625 -35.003906 32.046875 -35.519531 32.609375 -35.9375 C 33.171875 -36.363281 33.789062 -36.6875 34.46875 -36.90625 C 35.15625 -37.125 35.796875 -37.234375 36.390625 -37.234375 C 36.984375 -37.234375 37.425781 -37.109375 37.71875 -36.859375 C 38.019531 -36.609375 38.0625 -36.234375 37.84375 -35.734375 C 36.75 -33.242188 35.859375 -30.585938 35.171875 -27.765625 C 34.492188 -24.953125 34 -22.179688 33.6875 -19.453125 C 33.375 -16.734375 33.21875 -14.234375 33.21875 -11.953125 C 33.21875 -10.148438 33.570312 -8.632812 34.28125 -7.40625 C 35 -6.175781 35.828125 -5.5625 36.765625 -5.5625 C 37.515625 -5.5625 38.320312 -6.023438 39.1875 -6.953125 C 40.0625 -7.890625 40.925781 -9.132812 41.78125 -10.6875 C 42.644531 -12.25 43.429688 -13.976562 44.140625 -15.875 C 44.859375 -17.78125 45.425781 -19.707031 45.84375 -21.65625 C 46.269531 -23.601562 46.484375 -25.414062 46.484375 -27.09375 C 46.484375 -29.300781 46.328125 -31.285156 46.015625 -33.046875 C 45.703125 -34.804688 45.132812 -36.296875 44.3125 -37.515625 C 43.488281 -38.734375 42.296875 -39.617188 40.734375 -40.171875 C 40.078125 -40.421875 39.941406 -40.796875 40.328125 -41.296875 C 40.722656 -41.796875 41.484375 -42.046875 42.609375 -42.046875 C 44.941406 -42.046875 46.644531 -40.878906 47.71875 -38.546875 C 48.789062 -36.210938 49.328125 -32.785156 49.328125 -28.265625 C 49.328125 -26.023438 49.117188 -23.617188 48.703125 -21.046875 C 48.285156 -18.472656 47.671875 -15.945312 46.859375 -13.46875 C 46.046875 -11 45.085938 -8.742188 43.984375 -6.703125 C 42.878906 -4.660156 41.632812 -3.03125 40.25 -1.8125 C 38.863281 -0.601562 37.375 0 35.78125 0 C 34.632812 0 33.46875 -0.375 32.28125 -1.125 C 31.09375 -1.875 30.09375 -2.992188 29.28125 -4.484375 C 28.476562 -5.984375 28.015625 -7.851562 27.890625 -10.09375 C 27.265625 -8.21875 26.546875 -6.515625 25.734375 -4.984375 C 24.929688 -3.460938 24.035156 -2.25 23.046875 -1.34375 C 22.066406 -0.445312 21.003906 0 19.859375 0 Z M 19.859375 0 "/></g></g></g><g fill="#000000" fill-opacity="1"><g transform="translate(164.540128, 48.284282)"><g><path d="M 17.140625 0 C 16.085938 0 15.207031 -0.328125 14.5 -0.984375 C 13.800781 -1.640625 13.28125 -2.457031 12.9375 -3.4375 C 12.59375 -4.414062 12.421875 -5.421875 12.421875 -6.453125 C 12.421875 -7.535156 12.53125 -8.671875 12.75 -9.859375 C 12.96875 -11.046875 13.1875 -12.148438 13.40625 -13.171875 C 13.625 -14.203125 13.75 -15.035156 13.78125 -15.671875 C 13.8125 -16.304688 13.65625 -16.625 13.3125 -16.625 C 12.84375 -16.625 12.320312 -16.25 11.75 -15.5 C 11.175781 -14.757812 10.609375 -13.78125 10.046875 -12.5625 C 9.484375 -11.351562 8.96875 -10.046875 8.5 -8.640625 C 8.03125 -7.242188 7.648438 -5.878906 7.359375 -4.546875 C 7.066406 -3.222656 6.921875 -2.066406 6.921875 -1.078125 C 6.921875 -0.484375 6.609375 -0.128906 5.984375 -0.015625 C 5.359375 0.0859375 4.625 -0.078125 3.78125 -0.515625 C 2.9375 -0.953125 2.203125 -1.679688 1.578125 -2.703125 C 0.960938 -3.734375 0.65625 -5.109375 0.65625 -6.828125 C 0.65625 -10.773438 0.988281 -14.492188 1.65625 -17.984375 C 2.320312 -21.472656 3.238281 -24.546875 4.40625 -27.203125 C 5.582031 -29.867188 6.957031 -31.957031 8.53125 -33.46875 C 10.101562 -34.976562 11.789062 -35.734375 13.59375 -35.734375 C 14.875 -35.734375 15.898438 -35.304688 16.671875 -34.453125 C 17.453125 -33.597656 17.84375 -32.4375 17.84375 -30.96875 C 17.84375 -29.601562 17.367188 -28.132812 16.421875 -26.5625 C 15.472656 -24.988281 14.1875 -23.375 12.5625 -21.71875 C 10.945312 -20.070312 9.125 -18.421875 7.09375 -16.765625 C 6.914062 -15.335938 6.828125 -13.84375 6.828125 -12.28125 C 8.378906 -15.332031 9.976562 -17.664062 11.625 -19.28125 C 13.28125 -20.90625 15.007812 -21.71875 16.8125 -21.71875 C 17.8125 -21.71875 18.628906 -21.335938 19.265625 -20.578125 C 19.910156 -19.816406 20.234375 -18.890625 20.234375 -17.796875 C 20.234375 -16.617188 20.09375 -15.390625 19.8125 -14.109375 C 19.53125 -12.828125 19.25 -11.585938 18.96875 -10.390625 C 18.6875 -9.191406 18.546875 -8.09375 18.546875 -7.09375 C 18.546875 -6.070312 18.875 -5.5625 19.53125 -5.5625 C 20.125 -5.5625 20.753906 -5.957031 21.421875 -6.75 C 22.085938 -7.539062 22.734375 -8.519531 23.359375 -9.6875 C 23.984375 -10.863281 24.550781 -12.035156 25.0625 -13.203125 C 25.570312 -14.367188 25.953125 -15.328125 26.203125 -16.078125 C 26.484375 -16.847656 26.847656 -17.300781 27.296875 -17.4375 C 27.753906 -17.582031 28.140625 -17.453125 28.453125 -17.046875 C 28.765625 -16.640625 28.796875 -16.003906 28.546875 -15.140625 C 28.359375 -14.453125 28.03125 -13.492188 27.5625 -12.265625 C 27.09375 -11.035156 26.515625 -9.71875 25.828125 -8.3125 C 25.148438 -6.914062 24.359375 -5.582031 23.453125 -4.3125 C 22.546875 -3.050781 21.5625 -2.015625 20.5 -1.203125 C 19.445312 -0.398438 18.328125 0 17.140625 0 Z M 7.75 -20.75 C 9.90625 -22.519531 11.570312 -24.378906 12.75 -26.328125 C 13.9375 -28.273438 14.53125 -29.945312 14.53125 -31.34375 C 14.53125 -32.15625 14.3125 -32.5625 13.875 -32.5625 C 13.34375 -32.5625 12.6875 -32.054688 11.90625 -31.046875 C 11.132812 -30.035156 10.375 -28.640625 9.625 -26.859375 C 8.875 -25.085938 8.25 -23.050781 7.75 -20.75 Z M 7.75 -20.75 "/></g></g></g><g fill="#000000" fill-opacity="1"><g transform="translate(189.014935, 48.284282)"><g><path d="M 7.796875 0 C 5.523438 0.03125 3.8125 -0.757812 2.65625 -2.375 C 1.507812 -4 0.90625 -6.039062 0.84375 -8.5 C 0.8125 -9.90625 0.878906 -11.394531 1.046875 -12.96875 C 1.222656 -14.539062 1.65625 -16.085938 2.34375 -17.609375 C 2.738281 -18.546875 3.34375 -19.265625 4.15625 -19.765625 C 4.96875 -20.265625 5.773438 -20.566406 6.578125 -20.671875 C 7.390625 -20.785156 8.03125 -20.707031 8.5 -20.4375 C 8.96875 -20.175781 9.0625 -19.734375 8.78125 -19.109375 C 8.25 -17.859375 7.828125 -16.492188 7.515625 -15.015625 C 7.203125 -13.535156 7.035156 -12.144531 7.015625 -10.84375 C 7.015625 -8.9375 7.242188 -7.578125 7.703125 -6.765625 C 8.171875 -5.960938 8.71875 -5.5625 9.34375 -5.5625 C 10.4375 -5.5625 11.597656 -6.425781 12.828125 -8.15625 C 14.054688 -9.882812 15.429688 -12.539062 16.953125 -16.125 C 17.296875 -16.925781 17.703125 -17.363281 18.171875 -17.4375 C 18.640625 -17.519531 19.003906 -17.335938 19.265625 -16.890625 C 19.535156 -16.441406 19.53125 -15.796875 19.25 -14.953125 C 18.59375 -12.953125 17.828125 -11.054688 16.953125 -9.265625 C 16.085938 -7.484375 15.144531 -5.894531 14.125 -4.5 C 13.113281 -3.113281 12.078125 -2.015625 11.015625 -1.203125 C 9.960938 -0.398438 8.890625 0 7.796875 0 Z M 5.046875 -25.96875 C 5.046875 -26.78125 5.28125 -27.519531 5.75 -28.1875 C 6.21875 -28.863281 6.820312 -29.390625 7.5625 -29.765625 C 8.3125 -30.140625 9.109375 -30.3125 9.953125 -30.28125 C 10.796875 -30.25 11.460938 -29.984375 11.953125 -29.484375 C 12.453125 -28.984375 12.703125 -28.375 12.703125 -27.65625 C 12.703125 -26.4375 12.1875 -25.46875 11.15625 -24.75 C 10.132812 -24.039062 8.953125 -23.6875 7.609375 -23.6875 C 6.929688 -23.6875 6.332031 -23.894531 5.8125 -24.3125 C 5.300781 -24.738281 5.046875 -25.289062 5.046875 -25.96875 Z M 5.046875 -25.96875 "/></g></g></g><g fill="#000000" fill-opacity="1"><g transform="translate(204.241637, 48.284282)"><g><path d="M 7.984375 0 C 5.992188 0 4.351562 -0.925781 3.0625 -2.78125 C 1.769531 -4.632812 1.125 -7.226562 1.125 -10.5625 C 1.125 -12.144531 1.300781 -14.128906 1.65625 -16.515625 C 2.019531 -18.898438 2.601562 -21.367188 3.40625 -23.921875 L 0.703125 -23.921875 C -0.171875 -23.921875 -0.832031 -24.09375 -1.28125 -24.4375 C -1.738281 -24.78125 -1.96875 -25.125 -1.96875 -25.46875 C -1.96875 -25.707031 -1.878906 -25.9375 -1.703125 -26.15625 C -1.535156 -26.375 -1.203125 -26.484375 -0.703125 -26.484375 L 4.34375 -26.484375 C 4.53125 -26.984375 4.734375 -27.472656 4.953125 -27.953125 C 5.171875 -28.441406 5.390625 -28.921875 5.609375 -29.390625 C 6.015625 -30.222656 6.601562 -30.878906 7.375 -31.359375 C 8.15625 -31.847656 8.921875 -32.160156 9.671875 -32.296875 C 10.421875 -32.441406 11.003906 -32.378906 11.421875 -32.109375 C 11.835938 -31.847656 11.910156 -31.390625 11.640625 -30.734375 C 11.328125 -29.992188 11.03125 -29.265625 10.75 -28.546875 C 10.46875 -27.828125 10.203125 -27.140625 9.953125 -26.484375 L 15 -26.484375 C 15.65625 -26.484375 16.046875 -26.28125 16.171875 -25.875 C 16.296875 -25.476562 16.175781 -25.078125 15.8125 -24.671875 C 15.457031 -24.265625 14.84375 -24.0625 13.96875 -24.0625 C 13.28125 -24.0625 12.523438 -24.0625 11.703125 -24.0625 C 10.878906 -24.0625 10.015625 -24.046875 9.109375 -24.015625 C 8.265625 -21.273438 7.738281 -18.859375 7.53125 -16.765625 C 7.332031 -14.679688 7.234375 -12.722656 7.234375 -10.890625 C 7.234375 -8.765625 7.441406 -7.34375 7.859375 -6.625 C 8.285156 -5.914062 8.71875 -5.5625 9.15625 -5.5625 C 10.0625 -5.5625 11.003906 -6.382812 11.984375 -8.03125 C 12.960938 -9.6875 14.171875 -12.382812 15.609375 -16.125 C 15.921875 -16.925781 16.304688 -17.375 16.765625 -17.46875 C 17.234375 -17.5625 17.609375 -17.375 17.890625 -16.90625 C 18.171875 -16.445312 18.171875 -15.796875 17.890625 -14.953125 C 17.234375 -12.984375 16.585938 -11.101562 15.953125 -9.3125 C 15.316406 -7.53125 14.613281 -5.9375 13.84375 -4.53125 C 13.082031 -3.125 12.234375 -2.015625 11.296875 -1.203125 C 10.367188 -0.398438 9.265625 0 7.984375 0 Z M 7.984375 0 "/></g></g></g><g fill="#000000" fill-opacity="1"><g transform="translate(218.113803, 48.284282)"><g><path d="M 8.171875 0 C 6.867188 0 5.582031 -0.363281 4.3125 -1.09375 C 3.050781 -1.832031 2.015625 -2.929688 1.203125 -4.390625 C 0.398438 -5.859375 0 -7.679688 0 -9.859375 C 0 -11.253906 0.238281 -12.660156 0.71875 -14.078125 C 1.207031 -15.503906 1.894531 -16.804688 2.78125 -17.984375 C 3.664062 -19.171875 4.710938 -20.128906 5.921875 -20.859375 C 7.140625 -21.585938 8.484375 -21.953125 9.953125 -21.953125 C 11.691406 -21.953125 13.03125 -21.5 13.96875 -20.59375 C 14.90625 -19.695312 15.375 -18.609375 15.375 -17.328125 C 15.375 -16.054688 14.96875 -14.941406 14.15625 -13.984375 C 13.34375 -13.035156 12.257812 -12.296875 10.90625 -11.765625 C 9.550781 -11.242188 8.066406 -10.953125 6.453125 -10.890625 L 6.453125 -10.65625 C 6.453125 -9.125 6.679688 -7.890625 7.140625 -6.953125 C 7.609375 -6.023438 8.53125 -5.5625 9.90625 -5.5625 C 10.8125 -5.5625 11.757812 -5.867188 12.75 -6.484375 C 13.75 -7.109375 14.722656 -7.9375 15.671875 -8.96875 C 16.617188 -10 17.472656 -11.132812 18.234375 -12.375 C 19.003906 -13.625 19.609375 -14.859375 20.046875 -16.078125 C 20.390625 -16.972656 20.785156 -17.4375 21.234375 -17.46875 C 21.679688 -17.5 22.035156 -17.273438 22.296875 -16.796875 C 22.566406 -16.316406 22.578125 -15.703125 22.328125 -14.953125 C 21.765625 -13.171875 21.039062 -11.398438 20.15625 -9.640625 C 19.269531 -7.890625 18.21875 -6.285156 17 -4.828125 C 15.789062 -3.378906 14.453125 -2.210938 12.984375 -1.328125 C 11.523438 -0.441406 9.921875 0 8.171875 0 Z M 6.828125 -13.828125 C 7.722656 -13.890625 8.578125 -14.050781 9.390625 -14.3125 C 10.203125 -14.582031 10.867188 -14.96875 11.390625 -15.46875 C 11.921875 -15.96875 12.1875 -16.585938 12.1875 -17.328125 C 12.1875 -17.703125 12.09375 -18.066406 11.90625 -18.421875 C 11.726562 -18.785156 11.328125 -18.96875 10.703125 -18.96875 C 10.015625 -18.96875 9.421875 -18.71875 8.921875 -18.21875 C 8.421875 -17.71875 8 -17.070312 7.65625 -16.28125 C 7.3125 -15.488281 7.035156 -14.671875 6.828125 -13.828125 Z M 6.828125 -13.828125 "/></g></g></g></g></g><g transform="matrix(1, 0, 0, 1, 121, 218)"><g clip-path="url(#18f1af4760)"><g fill="#000000" fill-opacity="1"><g transform="translate(0.320531, 10.114543)"><g><path d="M 4.0625 -7.5625 C 5.019531 -7.5625 5.769531 -7.328125 6.3125 -6.859375 C 6.863281 -6.398438 7.140625 -5.769531 7.140625 -4.96875 C 7.140625 -4.15625 6.863281 -3.519531 6.3125 -3.0625 C 5.769531 -2.613281 5.019531 -2.390625 4.0625 -2.390625 L 2.03125 -2.390625 L 2.03125 0 L 1.234375 0 L 1.234375 -7.5625 Z M 4.03125 -3.09375 C 4.78125 -3.09375 5.351562 -3.253906 5.75 -3.578125 C 6.144531 -3.910156 6.34375 -4.375 6.34375 -4.96875 C 6.34375 -5.582031 6.144531 -6.050781 5.75 -6.375 C 5.351562 -6.695312 4.78125 -6.859375 4.03125 -6.859375 L 2.03125 -6.859375 L 2.03125 -3.09375 Z M 4.03125 -3.09375 "/></g></g></g><g fill="#000000" fill-opacity="1"><g transform="translate(8.068088, 10.114543)"><g><path d="M 1.796875 -4.5625 C 1.984375 -4.945312 2.253906 -5.234375 2.609375 -5.421875 C 2.960938 -5.617188 3.40625 -5.71875 3.9375 -5.71875 L 3.9375 -4.984375 L 3.75 -4.984375 C 3.144531 -4.984375 2.671875 -4.800781 2.328125 -4.4375 C 1.992188 -4.070312 1.828125 -3.554688 1.828125 -2.890625 L 1.828125 0 L 1.0625 0 L 1.0625 -5.671875 L 1.796875 -5.671875 Z M 1.796875 -4.5625 "/></g></g></g><g fill="#000000" fill-opacity="1"><g transform="translate(12.395069, 10.114543)"><g><path d="M 3.390625 0.046875 C 2.835938 0.046875 2.34375 -0.0703125 1.90625 -0.3125 C 1.46875 -0.5625 1.125 -0.90625 0.875 -1.34375 C 0.625 -1.789062 0.5 -2.289062 0.5 -2.84375 C 0.5 -3.394531 0.625 -3.890625 0.875 -4.328125 C 1.125 -4.765625 1.46875 -5.101562 1.90625 -5.34375 C 2.34375 -5.59375 2.835938 -5.71875 3.390625 -5.71875 C 3.929688 -5.71875 4.421875 -5.59375 4.859375 -5.34375 C 5.304688 -5.101562 5.648438 -4.765625 5.890625 -4.328125 C 6.140625 -3.890625 6.265625 -3.394531 6.265625 -2.84375 C 6.265625 -2.289062 6.140625 -1.789062 5.890625 -1.34375 C 5.648438 -0.90625 5.304688 -0.5625 4.859375 -0.3125 C 4.421875 -0.0703125 3.929688 0.046875 3.390625 0.046875 Z M 3.390625 -0.625 C 3.796875 -0.625 4.15625 -0.710938 4.46875 -0.890625 C 4.789062 -1.078125 5.039062 -1.335938 5.21875 -1.671875 C 5.40625 -2.015625 5.5 -2.40625 5.5 -2.84375 C 5.5 -3.269531 5.40625 -3.648438 5.21875 -3.984375 C 5.039062 -4.328125 4.789062 -4.585938 4.46875 -4.765625 C 4.15625 -4.953125 3.796875 -5.046875 3.390625 -5.046875 C 2.984375 -5.046875 2.617188 -4.953125 2.296875 -4.765625 C 1.984375 -4.585938 1.734375 -4.328125 1.546875 -3.984375 C 1.367188 -3.648438 1.28125 -3.269531 1.28125 -2.84375 C 1.28125 -2.40625 1.367188 -2.015625 1.546875 -1.671875 C 1.734375 -1.335938 1.984375 -1.078125 2.296875 -0.890625 C 2.617188 -0.710938 2.984375 -0.625 3.390625 -0.625 Z M 3.390625 -0.625 "/></g></g></g><g fill="#000000" fill-opacity="1"><g transform="translate(19.160688, 10.114543)"><g><path d="M 6.25 -8.015625 L 6.25 0 L 5.515625 0 L 5.515625 -1.125 C 5.285156 -0.738281 4.976562 -0.445312 4.59375 -0.25 C 4.21875 -0.0507812 3.796875 0.046875 3.328125 0.046875 C 2.796875 0.046875 2.3125 -0.0703125 1.875 -0.3125 C 1.445312 -0.5625 1.109375 -0.90625 0.859375 -1.34375 C 0.617188 -1.78125 0.5 -2.28125 0.5 -2.84375 C 0.5 -3.40625 0.617188 -3.90625 0.859375 -4.34375 C 1.109375 -4.78125 1.445312 -5.117188 1.875 -5.359375 C 2.3125 -5.597656 2.796875 -5.71875 3.328125 -5.71875 C 3.785156 -5.71875 4.195312 -5.625 4.5625 -5.4375 C 4.9375 -5.25 5.242188 -4.96875 5.484375 -4.59375 L 5.484375 -8.015625 Z M 3.390625 -0.625 C 3.785156 -0.625 4.140625 -0.710938 4.453125 -0.890625 C 4.773438 -1.078125 5.03125 -1.335938 5.21875 -1.671875 C 5.40625 -2.015625 5.5 -2.40625 5.5 -2.84375 C 5.5 -3.269531 5.40625 -3.648438 5.21875 -3.984375 C 5.03125 -4.328125 4.773438 -4.585938 4.453125 -4.765625 C 4.140625 -4.953125 3.785156 -5.046875 3.390625 -5.046875 C 2.984375 -5.046875 2.617188 -4.953125 2.296875 -4.765625 C 1.984375 -4.585938 1.734375 -4.328125 1.546875 -3.984375 C 1.367188 -3.648438 1.28125 -3.269531 1.28125 -2.84375 C 1.28125 -2.40625 1.367188 -2.015625 1.546875 -1.671875 C 1.734375 -1.335938 1.984375 -1.078125 2.296875 -0.890625 C 2.617188 -0.710938 2.984375 -0.625 3.390625 -0.625 Z M 3.390625 -0.625 "/></g></g></g><g fill="#000000" fill-opacity="1"><g transform="translate(26.47663, 10.114543)"><g><path d="M 6.1875 -5.671875 L 6.1875 0 L 5.453125 0 L 5.453125 -1.03125 C 5.253906 -0.6875 4.976562 -0.421875 4.625 -0.234375 C 4.269531 -0.046875 3.863281 0.046875 3.40625 0.046875 C 2.664062 0.046875 2.082031 -0.15625 1.65625 -0.5625 C 1.226562 -0.976562 1.015625 -1.585938 1.015625 -2.390625 L 1.015625 -5.671875 L 1.78125 -5.671875 L 1.78125 -2.46875 C 1.78125 -1.863281 1.925781 -1.40625 2.21875 -1.09375 C 2.519531 -0.789062 2.941406 -0.640625 3.484375 -0.640625 C 4.085938 -0.640625 4.5625 -0.820312 4.90625 -1.1875 C 5.25 -1.550781 5.421875 -2.054688 5.421875 -2.703125 L 5.421875 -5.671875 Z M 6.1875 -5.671875 "/></g></g></g><g fill="#000000" fill-opacity="1"><g transform="translate(33.738612, 10.114543)"><g><path d="M 4.0625 -0.34375 C 3.914062 -0.21875 3.734375 -0.117188 3.515625 -0.046875 C 3.304688 0.015625 3.085938 0.046875 2.859375 0.046875 C 2.328125 0.046875 1.914062 -0.09375 1.625 -0.375 C 1.34375 -0.664062 1.203125 -1.070312 1.203125 -1.59375 L 1.203125 -5.03125 L 0.1875 -5.03125 L 0.1875 -5.671875 L 1.203125 -5.671875 L 1.203125 -6.921875 L 1.96875 -6.921875 L 1.96875 -5.671875 L 3.6875 -5.671875 L 3.6875 -5.03125 L 1.96875 -5.03125 L 1.96875 -1.640625 C 1.96875 -1.304688 2.050781 -1.050781 2.21875 -0.875 C 2.382812 -0.695312 2.628906 -0.609375 2.953125 -0.609375 C 3.109375 -0.609375 3.257812 -0.628906 3.40625 -0.671875 C 3.550781 -0.722656 3.679688 -0.796875 3.796875 -0.890625 Z M 4.0625 -0.34375 "/></g></g></g><g fill="#000000" fill-opacity="1"><g transform="translate(38.11954, 10.114543)"><g><path d="M 3.390625 0.046875 C 2.835938 0.046875 2.34375 -0.0703125 1.90625 -0.3125 C 1.46875 -0.5625 1.125 -0.90625 0.875 -1.34375 C 0.625 -1.789062 0.5 -2.289062 0.5 -2.84375 C 0.5 -3.394531 0.625 -3.890625 0.875 -4.328125 C 1.125 -4.765625 1.46875 -5.101562 1.90625 -5.34375 C 2.34375 -5.59375 2.835938 -5.71875 3.390625 -5.71875 C 3.929688 -5.71875 4.421875 -5.59375 4.859375 -5.34375 C 5.304688 -5.101562 5.648438 -4.765625 5.890625 -4.328125 C 6.140625 -3.890625 6.265625 -3.394531 6.265625 -2.84375 C 6.265625 -2.289062 6.140625 -1.789062 5.890625 -1.34375 C 5.648438 -0.90625 5.304688 -0.5625 4.859375 -0.3125 C 4.421875 -0.0703125 3.929688 0.046875 3.390625 0.046875 Z M 3.390625 -0.625 C 3.796875 -0.625 4.15625 -0.710938 4.46875 -0.890625 C 4.789062 -1.078125 5.039062 -1.335938 5.21875 -1.671875 C 5.40625 -2.015625 5.5 -2.40625 5.5 -2.84375 C 5.5 -3.269531 5.40625 -3.648438 5.21875 -3.984375 C 5.039062 -4.328125 4.789062 -4.585938 4.46875 -4.765625 C 4.15625 -4.953125 3.796875 -5.046875 3.390625 -5.046875 C 2.984375 -5.046875 2.617188 -4.953125 2.296875 -4.765625 C 1.984375 -4.585938 1.734375 -4.328125 1.546875 -3.984375 C 1.367188 -3.648438 1.28125 -3.269531 1.28125 -2.84375 C 1.28125 -2.40625 1.367188 -2.015625 1.546875 -1.671875 C 1.734375 -1.335938 1.984375 -1.078125 2.296875 -0.890625 C 2.617188 -0.710938 2.984375 -0.625 3.390625 -0.625 Z M 3.390625 -0.625 "/></g></g></g><g fill="#000000" fill-opacity="1"><g transform="translate(44.885159, 10.114543)"><g><path d="M 2.59375 0.046875 C 2.132812 0.046875 1.691406 -0.015625 1.265625 -0.140625 C 0.847656 -0.273438 0.519531 -0.441406 0.28125 -0.640625 L 0.625 -1.25 C 0.863281 -1.0625 1.160156 -0.90625 1.515625 -0.78125 C 1.878906 -0.664062 2.253906 -0.609375 2.640625 -0.609375 C 3.160156 -0.609375 3.546875 -0.6875 3.796875 -0.84375 C 4.046875 -1.007812 4.171875 -1.242188 4.171875 -1.546875 C 4.171875 -1.753906 4.097656 -1.914062 3.953125 -2.03125 C 3.816406 -2.15625 3.644531 -2.242188 3.4375 -2.296875 C 3.226562 -2.359375 2.953125 -2.421875 2.609375 -2.484375 C 2.148438 -2.566406 1.78125 -2.648438 1.5 -2.734375 C 1.21875 -2.828125 0.976562 -2.984375 0.78125 -3.203125 C 0.582031 -3.421875 0.484375 -3.722656 0.484375 -4.109375 C 0.484375 -4.578125 0.679688 -4.960938 1.078125 -5.265625 C 1.472656 -5.566406 2.023438 -5.71875 2.734375 -5.71875 C 3.097656 -5.71875 3.460938 -5.671875 3.828125 -5.578125 C 4.203125 -5.484375 4.503906 -5.351562 4.734375 -5.1875 L 4.40625 -4.578125 C 3.9375 -4.898438 3.378906 -5.0625 2.734375 -5.0625 C 2.242188 -5.0625 1.875 -4.972656 1.625 -4.796875 C 1.375 -4.628906 1.25 -4.40625 1.25 -4.125 C 1.25 -3.90625 1.316406 -3.726562 1.453125 -3.59375 C 1.597656 -3.46875 1.773438 -3.375 1.984375 -3.3125 C 2.191406 -3.257812 2.476562 -3.195312 2.84375 -3.125 C 3.300781 -3.039062 3.664062 -2.957031 3.9375 -2.875 C 4.207031 -2.789062 4.441406 -2.640625 4.640625 -2.421875 C 4.835938 -2.210938 4.9375 -1.925781 4.9375 -1.5625 C 4.9375 -1.070312 4.726562 -0.679688 4.3125 -0.390625 C 3.894531 -0.0976562 3.320312 0.046875 2.59375 0.046875 Z M 2.59375 0.046875 "/></g></g></g><g fill="#000000" fill-opacity="1"><g transform="translate(50.161704, 10.114543)"><g/></g></g><g fill="#000000" fill-opacity="1"><g transform="translate(52.98881, 10.114543)"><g><path d="M 4.53125 0.0625 C 3.78125 0.0625 3.101562 -0.101562 2.5 -0.4375 C 1.894531 -0.769531 1.421875 -1.226562 1.078125 -1.8125 C 0.734375 -2.394531 0.5625 -3.050781 0.5625 -3.78125 C 0.5625 -4.507812 0.734375 -5.164062 1.078125 -5.75 C 1.421875 -6.332031 1.894531 -6.789062 2.5 -7.125 C 3.101562 -7.457031 3.78125 -7.625 4.53125 -7.625 C 5.28125 -7.625 5.953125 -7.457031 6.546875 -7.125 C 7.148438 -6.789062 7.625 -6.332031 7.96875 -5.75 C 8.320312 -5.164062 8.5 -4.507812 8.5 -3.78125 C 8.5 -3.050781 8.320312 -2.390625 7.96875 -1.796875 C 7.625 -1.210938 7.148438 -0.753906 6.546875 -0.421875 C 5.953125 -0.0976562 5.28125 0.0625 4.53125 0.0625 Z M 4.53125 -0.640625 C 5.132812 -0.640625 5.675781 -0.773438 6.15625 -1.046875 C 6.632812 -1.316406 7.007812 -1.691406 7.28125 -2.171875 C 7.5625 -2.648438 7.703125 -3.1875 7.703125 -3.78125 C 7.703125 -4.375 7.5625 -4.90625 7.28125 -5.375 C 7.007812 -5.851562 6.632812 -6.226562 6.15625 -6.5 C 5.675781 -6.769531 5.132812 -6.90625 4.53125 -6.90625 C 3.9375 -6.90625 3.394531 -6.769531 2.90625 -6.5 C 2.425781 -6.226562 2.046875 -5.851562 1.765625 -5.375 C 1.484375 -4.90625 1.34375 -4.375 1.34375 -3.78125 C 1.34375 -3.1875 1.484375 -2.648438 1.765625 -2.171875 C 2.046875 -1.691406 2.425781 -1.316406 2.90625 -1.046875 C 3.394531 -0.773438 3.9375 -0.640625 4.53125 -0.640625 Z M 4.53125 -0.640625 "/></g></g></g><g fill="#000000" fill-opacity="1"><g transform="translate(62.042013, 10.114543)"><g><path d="M 6.25 -8.015625 L 6.25 0 L 5.515625 0 L 5.515625 -1.125 C 5.285156 -0.738281 4.976562 -0.445312 4.59375 -0.25 C 4.21875 -0.0507812 3.796875 0.046875 3.328125 0.046875 C 2.796875 0.046875 2.3125 -0.0703125 1.875 -0.3125 C 1.445312 -0.5625 1.109375 -0.90625 0.859375 -1.34375 C 0.617188 -1.78125 0.5 -2.28125 0.5 -2.84375 C 0.5 -3.40625 0.617188 -3.90625 0.859375 -4.34375 C 1.109375 -4.78125 1.445312 -5.117188 1.875 -5.359375 C 2.3125 -5.597656 2.796875 -5.71875 3.328125 -5.71875 C 3.785156 -5.71875 4.195312 -5.625 4.5625 -5.4375 C 4.9375 -5.25 5.242188 -4.96875 5.484375 -4.59375 L 5.484375 -8.015625 Z M 3.390625 -0.625 C 3.785156 -0.625 4.140625 -0.710938 4.453125 -0.890625 C 4.773438 -1.078125 5.03125 -1.335938 5.21875 -1.671875 C 5.40625 -2.015625 5.5 -2.40625 5.5 -2.84375 C 5.5 -3.269531 5.40625 -3.648438 5.21875 -3.984375 C 5.03125 -4.328125 4.773438 -4.585938 4.453125 -4.765625 C 4.140625 -4.953125 3.785156 -5.046875 3.390625 -5.046875 C 2.984375 -5.046875 2.617188 -4.953125 2.296875 -4.765625 C 1.984375 -4.585938 1.734375 -4.328125 1.546875 -3.984375 C 1.367188 -3.648438 1.28125 -3.269531 1.28125 -2.84375 C 1.28125 -2.40625 1.367188 -2.015625 1.546875 -1.671875 C 1.734375 -1.335938 1.984375 -1.078125 2.296875 -0.890625 C 2.617188 -0.710938 2.984375 -0.625 3.390625 -0.625 Z M 3.390625 -0.625 "/></g></g></g><g fill="#000000" fill-opacity="1"><g transform="translate(69.357955, 10.114543)"><g><path d="M 3.390625 0.046875 C 2.835938 0.046875 2.34375 -0.0703125 1.90625 -0.3125 C 1.46875 -0.5625 1.125 -0.90625 0.875 -1.34375 C 0.625 -1.789062 0.5 -2.289062 0.5 -2.84375 C 0.5 -3.394531 0.625 -3.890625 0.875 -4.328125 C 1.125 -4.765625 1.46875 -5.101562 1.90625 -5.34375 C 2.34375 -5.59375 2.835938 -5.71875 3.390625 -5.71875 C 3.929688 -5.71875 4.421875 -5.59375 4.859375 -5.34375 C 5.304688 -5.101562 5.648438 -4.765625 5.890625 -4.328125 C 6.140625 -3.890625 6.265625 -3.394531 6.265625 -2.84375 C 6.265625 -2.289062 6.140625 -1.789062 5.890625 -1.34375 C 5.648438 -0.90625 5.304688 -0.5625 4.859375 -0.3125 C 4.421875 -0.0703125 3.929688 0.046875 3.390625 0.046875 Z M 3.390625 -0.625 C 3.796875 -0.625 4.15625 -0.710938 4.46875 -0.890625 C 4.789062 -1.078125 5.039062 -1.335938 5.21875 -1.671875 C 5.40625 -2.015625 5.5 -2.40625 5.5 -2.84375 C 5.5 -3.269531 5.40625 -3.648438 5.21875 -3.984375 C 5.039062 -4.328125 4.789062 -4.585938 4.46875 -4.765625 C 4.15625 -4.953125 3.796875 -5.046875 3.390625 -5.046875 C 2.984375 -5.046875 2.617188 -4.953125 2.296875 -4.765625 C 1.984375 -4.585938 1.734375 -4.328125 1.546875 -3.984375 C 1.367188 -3.648438 1.28125 -3.269531 1.28125 -2.84375 C 1.28125 -2.40625 1.367188 -2.015625 1.546875 -1.671875 C 1.734375 -1.335938 1.984375 -1.078125 2.296875 -0.890625 C 2.617188 -0.710938 2.984375 -0.625 3.390625 -0.625 Z M 3.390625 -0.625 "/></g></g></g><g fill="#000000" fill-opacity="1"><g transform="translate(76.123574, 10.114543)"><g><path d="M 3.96875 -5.71875 C 4.675781 -5.71875 5.238281 -5.507812 5.65625 -5.09375 C 6.082031 -4.6875 6.296875 -4.085938 6.296875 -3.296875 L 6.296875 0 L 5.53125 0 L 5.53125 -3.21875 C 5.53125 -3.8125 5.378906 -4.257812 5.078125 -4.5625 C 4.785156 -4.875 4.367188 -5.03125 3.828125 -5.03125 C 3.210938 -5.03125 2.722656 -4.847656 2.359375 -4.484375 C 2.003906 -4.117188 1.828125 -3.617188 1.828125 -2.984375 L 1.828125 0 L 1.0625 0 L 1.0625 -5.671875 L 1.796875 -5.671875 L 1.796875 -4.625 C 2.003906 -4.976562 2.296875 -5.25 2.671875 -5.4375 C 3.046875 -5.625 3.476562 -5.71875 3.96875 -5.71875 Z M 3.96875 -5.71875 "/></g></g></g><g fill="#000000" fill-opacity="1"><g transform="translate(83.428717, 10.114543)"><g><path d="M 4.0625 -0.34375 C 3.914062 -0.21875 3.734375 -0.117188 3.515625 -0.046875 C 3.304688 0.015625 3.085938 0.046875 2.859375 0.046875 C 2.328125 0.046875 1.914062 -0.09375 1.625 -0.375 C 1.34375 -0.664062 1.203125 -1.070312 1.203125 -1.59375 L 1.203125 -5.03125 L 0.1875 -5.03125 L 0.1875 -5.671875 L 1.203125 -5.671875 L 1.203125 -6.921875 L 1.96875 -6.921875 L 1.96875 -5.671875 L 3.6875 -5.671875 L 3.6875 -5.03125 L 1.96875 -5.03125 L 1.96875 -1.640625 C 1.96875 -1.304688 2.050781 -1.050781 2.21875 -0.875 C 2.382812 -0.695312 2.628906 -0.609375 2.953125 -0.609375 C 3.109375 -0.609375 3.257812 -0.628906 3.40625 -0.671875 C 3.550781 -0.722656 3.679688 -0.796875 3.796875 -0.890625 Z M 4.0625 -0.34375 "/></g></g></g><g fill="#000000" fill-opacity="1"><g transform="translate(87.809644, 10.114543)"><g><path d="M 3.390625 0.046875 C 2.835938 0.046875 2.34375 -0.0703125 1.90625 -0.3125 C 1.46875 -0.5625 1.125 -0.90625 0.875 -1.34375 C 0.625 -1.789062 0.5 -2.289062 0.5 -2.84375 C 0.5 -3.394531 0.625 -3.890625 0.875 -4.328125 C 1.125 -4.765625 1.46875 -5.101562 1.90625 -5.34375 C 2.34375 -5.59375 2.835938 -5.71875 3.390625 -5.71875 C 3.929688 -5.71875 4.421875 -5.59375 4.859375 -5.34375 C 5.304688 -5.101562 5.648438 -4.765625 5.890625 -4.328125 C 6.140625 -3.890625 6.265625 -3.394531 6.265625 -2.84375 C 6.265625 -2.289062 6.140625 -1.789062 5.890625 -1.34375 C 5.648438 -0.90625 5.304688 -0.5625 4.859375 -0.3125 C 4.421875 -0.0703125 3.929688 0.046875 3.390625 0.046875 Z M 3.390625 -0.625 C 3.796875 -0.625 4.15625 -0.710938 4.46875 -0.890625 C 4.789062 -1.078125 5.039062 -1.335938 5.21875 -1.671875 C 5.40625 -2.015625 5.5 -2.40625 5.5 -2.84375 C 5.5 -3.269531 5.40625 -3.648438 5.21875 -3.984375 C 5.039062 -4.328125 4.789062 -4.585938 4.46875 -4.765625 C 4.15625 -4.953125 3.796875 -5.046875 3.390625 -5.046875 C 2.984375 -5.046875 2.617188 -4.953125 2.296875 -4.765625 C 1.984375 -4.585938 1.734375 -4.328125 1.546875 -3.984375 C 1.367188 -3.648438 1.28125 -3.269531 1.28125 -2.84375 C 1.28125 -2.40625 1.367188 -2.015625 1.546875 -1.671875 C 1.734375 -1.335938 1.984375 -1.078125 2.296875 -0.890625 C 2.617188 -0.710938 2.984375 -0.625 3.390625 -0.625 Z M 3.390625 -0.625 "/></g></g></g><g fill="#000000" fill-opacity="1"><g transform="translate(94.575264, 10.114543)"><g><path d="M 1.0625 -8.015625 L 1.828125 -8.015625 L 1.828125 0 L 1.0625 0 Z M 1.0625 -8.015625 "/></g></g></g><g fill="#000000" fill-opacity="1"><g transform="translate(97.477904, 10.114543)"><g><path d="M 3.390625 0.046875 C 2.835938 0.046875 2.34375 -0.0703125 1.90625 -0.3125 C 1.46875 -0.5625 1.125 -0.90625 0.875 -1.34375 C 0.625 -1.789062 0.5 -2.289062 0.5 -2.84375 C 0.5 -3.394531 0.625 -3.890625 0.875 -4.328125 C 1.125 -4.765625 1.46875 -5.101562 1.90625 -5.34375 C 2.34375 -5.59375 2.835938 -5.71875 3.390625 -5.71875 C 3.929688 -5.71875 4.421875 -5.59375 4.859375 -5.34375 C 5.304688 -5.101562 5.648438 -4.765625 5.890625 -4.328125 C 6.140625 -3.890625 6.265625 -3.394531 6.265625 -2.84375 C 6.265625 -2.289062 6.140625 -1.789062 5.890625 -1.34375 C 5.648438 -0.90625 5.304688 -0.5625 4.859375 -0.3125 C 4.421875 -0.0703125 3.929688 0.046875 3.390625 0.046875 Z M 3.390625 -0.625 C 3.796875 -0.625 4.15625 -0.710938 4.46875 -0.890625 C 4.789062 -1.078125 5.039062 -1.335938 5.21875 -1.671875 C 5.40625 -2.015625 5.5 -2.40625 5.5 -2.84375 C 5.5 -3.269531 5.40625 -3.648438 5.21875 -3.984375 C 5.039062 -4.328125 4.789062 -4.585938 4.46875 -4.765625 C 4.15625 -4.953125 3.796875 -5.046875 3.390625 -5.046875 C 2.984375 -5.046875 2.617188 -4.953125 2.296875 -4.765625 C 1.984375 -4.585938 1.734375 -4.328125 1.546875 -3.984375 C 1.367188 -3.648438 1.28125 -3.269531 1.28125 -2.84375 C 1.28125 -2.40625 1.367188 -2.015625 1.546875 -1.671875 C 1.734375 -1.335938 1.984375 -1.078125 2.296875 -0.890625 C 2.617188 -0.710938 2.984375 -0.625 3.390625 -0.625 Z M 4.15625 -7.90625 L 5.1875 -7.90625 L 3.4375 -6.5625 L 2.6875 -6.5625 Z M 4.15625 -7.90625 "/></g></g></g><g fill="#000000" fill-opacity="1"><g transform="translate(104.243524, 10.114543)"><g><path d="M 6.328125 -5.671875 L 6.328125 -0.6875 C 6.328125 0.269531 6.085938 0.984375 5.609375 1.453125 C 5.140625 1.921875 4.429688 2.15625 3.484375 2.15625 C 2.960938 2.15625 2.460938 2.078125 1.984375 1.921875 C 1.515625 1.765625 1.132812 1.550781 0.84375 1.28125 L 1.234375 0.6875 C 1.503906 0.9375 1.832031 1.128906 2.21875 1.265625 C 2.613281 1.398438 3.03125 1.46875 3.46875 1.46875 C 4.1875 1.46875 4.710938 1.300781 5.046875 0.96875 C 5.390625 0.632812 5.5625 0.113281 5.5625 -0.59375 L 5.5625 -1.3125 C 5.320312 -0.957031 5.007812 -0.6875 4.625 -0.5 C 4.238281 -0.3125 3.8125 -0.21875 3.34375 -0.21875 C 2.8125 -0.21875 2.328125 -0.332031 1.890625 -0.5625 C 1.453125 -0.800781 1.109375 -1.128906 0.859375 -1.546875 C 0.617188 -1.972656 0.5 -2.453125 0.5 -2.984375 C 0.5 -3.515625 0.617188 -3.988281 0.859375 -4.40625 C 1.109375 -4.820312 1.445312 -5.144531 1.875 -5.375 C 2.3125 -5.601562 2.800781 -5.71875 3.34375 -5.71875 C 3.832031 -5.71875 4.269531 -5.617188 4.65625 -5.421875 C 5.039062 -5.234375 5.351562 -4.957031 5.59375 -4.59375 L 5.59375 -5.671875 Z M 3.421875 -0.890625 C 3.828125 -0.890625 4.195312 -0.976562 4.53125 -1.15625 C 4.863281 -1.332031 5.117188 -1.578125 5.296875 -1.890625 C 5.484375 -2.210938 5.578125 -2.578125 5.578125 -2.984375 C 5.578125 -3.378906 5.484375 -3.734375 5.296875 -4.046875 C 5.117188 -4.367188 4.863281 -4.613281 4.53125 -4.78125 C 4.207031 -4.957031 3.835938 -5.046875 3.421875 -5.046875 C 3.015625 -5.046875 2.644531 -4.957031 2.3125 -4.78125 C 1.988281 -4.613281 1.734375 -4.367188 1.546875 -4.046875 C 1.367188 -3.734375 1.28125 -3.378906 1.28125 -2.984375 C 1.28125 -2.578125 1.367188 -2.210938 1.546875 -1.890625 C 1.734375 -1.578125 1.988281 -1.332031 2.3125 -1.15625 C 2.644531 -0.976562 3.015625 -0.890625 3.421875 -0.890625 Z M 3.421875 -0.890625 "/></g></g></g><g fill="#000000" fill-opacity="1"><g transform="translate(111.645786, 10.114543)"><g><path d="M 1.0625 -5.671875 L 1.828125 -5.671875 L 1.828125 0 L 1.0625 0 Z M 1.46875 -6.921875 C 1.300781 -6.921875 1.164062 -6.972656 1.0625 -7.078125 C 0.957031 -7.191406 0.90625 -7.320312 0.90625 -7.46875 C 0.90625 -7.613281 0.957031 -7.738281 1.0625 -7.84375 C 1.164062 -7.957031 1.300781 -8.015625 1.46875 -8.015625 C 1.625 -8.015625 1.753906 -7.960938 1.859375 -7.859375 C 1.972656 -7.753906 2.03125 -7.628906 2.03125 -7.484375 C 2.03125 -7.328125 1.972656 -7.191406 1.859375 -7.078125 C 1.753906 -6.972656 1.625 -6.921875 1.46875 -6.921875 Z M 1.46875 -6.921875 "/></g></g></g><g fill="#000000" fill-opacity="1"><g transform="translate(114.548426, 10.114543)"><g><path d="M 3.421875 0.046875 C 2.859375 0.046875 2.351562 -0.0703125 1.90625 -0.3125 C 1.46875 -0.5625 1.125 -0.90625 0.875 -1.34375 C 0.625 -1.789062 0.5 -2.289062 0.5 -2.84375 C 0.5 -3.394531 0.625 -3.890625 0.875 -4.328125 C 1.125 -4.765625 1.46875 -5.101562 1.90625 -5.34375 C 2.351562 -5.59375 2.859375 -5.71875 3.421875 -5.71875 C 3.910156 -5.71875 4.347656 -5.625 4.734375 -5.4375 C 5.117188 -5.25 5.421875 -4.96875 5.640625 -4.59375 L 5.078125 -4.203125 C 4.890625 -4.484375 4.648438 -4.691406 4.359375 -4.828125 C 4.078125 -4.972656 3.765625 -5.046875 3.421875 -5.046875 C 3.015625 -5.046875 2.644531 -4.953125 2.3125 -4.765625 C 1.988281 -4.585938 1.734375 -4.328125 1.546875 -3.984375 C 1.367188 -3.648438 1.28125 -3.269531 1.28125 -2.84375 C 1.28125 -2.40625 1.367188 -2.015625 1.546875 -1.671875 C 1.734375 -1.335938 1.988281 -1.078125 2.3125 -0.890625 C 2.644531 -0.710938 3.015625 -0.625 3.421875 -0.625 C 3.765625 -0.625 4.078125 -0.691406 4.359375 -0.828125 C 4.648438 -0.960938 4.890625 -1.171875 5.078125 -1.453125 L 5.640625 -1.0625 C 5.421875 -0.695312 5.113281 -0.421875 4.71875 -0.234375 C 4.332031 -0.046875 3.898438 0.046875 3.421875 0.046875 Z M 3.421875 0.046875 "/></g></g></g><g fill="#000000" fill-opacity="1"><g transform="translate(120.623455, 10.114543)"><g><path d="M 3.390625 0.046875 C 2.835938 0.046875 2.34375 -0.0703125 1.90625 -0.3125 C 1.46875 -0.5625 1.125 -0.90625 0.875 -1.34375 C 0.625 -1.789062 0.5 -2.289062 0.5 -2.84375 C 0.5 -3.394531 0.625 -3.890625 0.875 -4.328125 C 1.125 -4.765625 1.46875 -5.101562 1.90625 -5.34375 C 2.34375 -5.59375 2.835938 -5.71875 3.390625 -5.71875 C 3.929688 -5.71875 4.421875 -5.59375 4.859375 -5.34375 C 5.304688 -5.101562 5.648438 -4.765625 5.890625 -4.328125 C 6.140625 -3.890625 6.265625 -3.394531 6.265625 -2.84375 C 6.265625 -2.289062 6.140625 -1.789062 5.890625 -1.34375 C 5.648438 -0.90625 5.304688 -0.5625 4.859375 -0.3125 C 4.421875 -0.0703125 3.929688 0.046875 3.390625 0.046875 Z M 3.390625 -0.625 C 3.796875 -0.625 4.15625 -0.710938 4.46875 -0.890625 C 4.789062 -1.078125 5.039062 -1.335938 5.21875 -1.671875 C 5.40625 -2.015625 5.5 -2.40625 5.5 -2.84375 C 5.5 -3.269531 5.40625 -3.648438 5.21875 -3.984375 C 5.039062 -4.328125 4.789062 -4.585938 4.46875 -4.765625 C 4.15625 -4.953125 3.796875 -5.046875 3.390625 -5.046875 C 2.984375 -5.046875 2.617188 -4.953125 2.296875 -4.765625 C 1.984375 -4.585938 1.734375 -4.328125 1.546875 -3.984375 C 1.367188 -3.648438 1.28125 -3.269531 1.28125 -2.84375 C 1.28125 -2.40625 1.367188 -2.015625 1.546875 -1.671875 C 1.734375 -1.335938 1.984375 -1.078125 2.296875 -0.890625 C 2.617188 -0.710938 2.984375 -0.625 3.390625 -0.625 Z M 3.390625 -0.625 "/></g></g></g><g fill="#000000" fill-opacity="1"><g transform="translate(127.389075, 10.114543)"><g><path d="M 2.59375 0.046875 C 2.132812 0.046875 1.691406 -0.015625 1.265625 -0.140625 C 0.847656 -0.273438 0.519531 -0.441406 0.28125 -0.640625 L 0.625 -1.25 C 0.863281 -1.0625 1.160156 -0.90625 1.515625 -0.78125 C 1.878906 -0.664062 2.253906 -0.609375 2.640625 -0.609375 C 3.160156 -0.609375 3.546875 -0.6875 3.796875 -0.84375 C 4.046875 -1.007812 4.171875 -1.242188 4.171875 -1.546875 C 4.171875 -1.753906 4.097656 -1.914062 3.953125 -2.03125 C 3.816406 -2.15625 3.644531 -2.242188 3.4375 -2.296875 C 3.226562 -2.359375 2.953125 -2.421875 2.609375 -2.484375 C 2.148438 -2.566406 1.78125 -2.648438 1.5 -2.734375 C 1.21875 -2.828125 0.976562 -2.984375 0.78125 -3.203125 C 0.582031 -3.421875 0.484375 -3.722656 0.484375 -4.109375 C 0.484375 -4.578125 0.679688 -4.960938 1.078125 -5.265625 C 1.472656 -5.566406 2.023438 -5.71875 2.734375 -5.71875 C 3.097656 -5.71875 3.460938 -5.671875 3.828125 -5.578125 C 4.203125 -5.484375 4.503906 -5.351562 4.734375 -5.1875 L 4.40625 -4.578125 C 3.9375 -4.898438 3.378906 -5.0625 2.734375 -5.0625 C 2.242188 -5.0625 1.875 -4.972656 1.625 -4.796875 C 1.375 -4.628906 1.25 -4.40625 1.25 -4.125 C 1.25 -3.90625 1.316406 -3.726562 1.453125 -3.59375 C 1.597656 -3.46875 1.773438 -3.375 1.984375 -3.3125 C 2.191406 -3.257812 2.476562 -3.195312 2.84375 -3.125 C 3.300781 -3.039062 3.664062 -2.957031 3.9375 -2.875 C 4.207031 -2.789062 4.441406 -2.640625 4.640625 -2.421875 C 4.835938 -2.210938 4.9375 -1.925781 4.9375 -1.5625 C 4.9375 -1.070312 4.726562 -0.679688 4.3125 -0.390625 C 3.894531 -0.0976562 3.320312 0.046875 2.59375 0.046875 Z M 2.59375 0.046875 "/></g></g></g></g></g></svg>